<svg width="144" height="62" viewBox="0 0 144 62" fill="none" xmlns="http://www.w3.org/2000/svg">
<rect width="18.9353" height="31.3749" transform="matrix(0.784373 0.620289 -0.642157 0.766573 20.1477 18.7034)" fill="#5A189A"/>
<rect width="18.9353" height="31.3749" transform="matrix(0.784373 0.620289 -0.642157 0.766573 20.1477 7.5)" fill="white"/>
<path d="M65.68 39.32H54.04L51.04 45H46.28L61.16 17.16H66.44L71.48 45H66.68L65.68 39.32ZM65.08 35.76L62.8 22.68L55.92 35.76H65.08ZM106.451 22.6C108.771 22.6 110.624 23.2267 112.011 24.48C113.397 25.7333 114.091 27.5067 114.091 29.8C114.091 30.4133 114.024 31.1467 113.891 32L111.571 45H107.051L109.251 32.68C109.357 31.9333 109.411 31.4 109.411 31.08C109.411 29.6133 108.997 28.4933 108.171 27.72C107.371 26.9467 106.251 26.56 104.811 26.56C103.077 26.56 101.611 27.0933 100.411 28.16C99.2373 29.2 98.4906 30.7067 98.1706 32.68L95.9706 45H91.4506L93.6506 32.68C93.7573 31.9333 93.8106 31.4 93.8106 31.08C93.8106 29.6133 93.3973 28.4933 92.5706 27.72C91.7706 26.9467 90.6506 26.56 89.2106 26.56C87.4773 26.56 86.0106 27.0933 84.8106 28.16C83.6373 29.2 82.8906 30.7067 82.5706 32.68V32.56L80.3706 45H75.8106L79.6906 22.96H84.2506L83.8106 25.52C84.6906 24.6133 85.744 23.9067 86.9706 23.4C88.224 22.8667 89.5173 22.6 90.8506 22.6C92.6106 22.6 94.1173 22.9733 95.3706 23.72C96.6506 24.4667 97.544 25.5467 98.0506 26.96C98.9306 25.6267 100.144 24.5733 101.691 23.8C103.237 23 104.824 22.6 106.451 22.6ZM125.133 26.84C126.04 25.5067 127.106 24.4667 128.333 23.72C129.586 22.9733 130.973 22.6 132.493 22.6L131.653 27.32H130.493C128.733 27.32 127.32 27.76 126.253 28.64C125.186 29.52 124.44 31.04 124.013 33.2L121.933 45H117.373L121.253 22.96H125.813L125.133 26.84Z" fill="white"/>
</svg>
